<svg width="44" height="44" viewBox="0 0 44 44" fill="none" xmlns="http://www.w3.org/2000/svg">
<g clip-path="url(#clip0_427_12675)">
<rect width="44" height="44" rx="22" fill="white"/>
<circle cx="22" cy="22" r="22" fill="#C9FB3C"/>
<mask id="path-3-inside-1_427_12675" fill="white">
<path fill-rule="evenodd" clip-rule="evenodd" d="M96 0C91.4886 0 87.2733 2.0071 83.1738 3.8904C80.3814 5.17321 77.2742 5.88849 74 5.88849C70.7258 5.88849 67.6186 5.17321 64.8262 3.89039C60.7267 2.00709 56.5114 0 52 0V0C39.8497 0 30 9.84974 30 22C30 34.1503 39.8497 44 52 44V44C56.5137 44 60.7314 41.9921 64.8337 40.1094C67.6241 38.8287 70.7287 38.1147 74 38.1147C77.2713 38.1147 80.3759 38.8287 83.1663 40.1094C87.2686 41.9921 91.4863 44 96 44V44C108.15 44 118 34.1503 118 22C118 9.84974 108.15 0 96 0V0Z"/>
</mask>
<path d="M83.1663 40.1094L81.915 42.836L83.1663 40.1094ZM74 8.88849C77.7152 8.88849 81.2489 8.07613 84.4262 6.61649L81.9214 1.1643C79.5139 2.2703 76.8333 2.88849 74 2.88849V8.88849ZM63.5738 6.61649C66.7511 8.07613 70.2848 8.88849 74 8.88849V2.88849C71.1667 2.88849 68.4861 2.2703 66.0786 1.1643L63.5738 6.61649ZM33 22C33 11.5066 41.5066 3 52 3V-3C38.1929 -3 27 8.19288 27 22H33ZM52 41C41.5066 41 33 32.4934 33 22H27C27 35.8071 38.1929 47 52 47V41ZM74 35.1147C70.2881 35.1147 66.7574 35.9257 63.5823 37.3828L66.085 42.836C68.4908 41.7318 71.1693 41.1147 74 41.1147V35.1147ZM84.4176 37.3828C81.2426 35.9257 77.7119 35.1147 74 35.1147V41.1147C76.8307 41.1147 79.5092 41.7318 81.915 42.836L84.4176 37.3828ZM115 22C115 32.4934 106.493 41 96 41V47C109.807 47 121 35.8071 121 22H115ZM96 3C106.493 3 115 11.5066 115 22H121C121 8.19288 109.807 -3 96 -3V3ZM81.915 42.836C85.8539 44.6437 90.7028 47 96 47V41C92.2698 41 88.6834 39.3406 84.4176 37.3828L81.915 42.836ZM66.0786 1.1643C62.1417 -0.644304 57.2953 -3 52 -3V3C55.7275 3 59.3118 4.65849 63.5738 6.61649L66.0786 1.1643ZM52 47C57.2972 47 62.1461 44.6437 66.085 42.836L63.5823 37.3828C59.3166 39.3406 55.7302 41 52 41V47ZM84.4262 6.61649C88.6882 4.65849 92.2725 3 96 3V-3C90.7047 -3 85.8583 -0.644302 81.9214 1.1643L84.4262 6.61649Z" fill="white" mask="url(#path-3-inside-1_427_12675)"/>
<mask id="path-5-inside-2_427_12675" fill="white">
<path fill-rule="evenodd" clip-rule="evenodd" d="M-8 0C-12.5114 0 -16.7267 2.0071 -20.8262 3.8904C-23.6186 5.17321 -26.7258 5.88849 -30 5.88849C-33.2742 5.88849 -36.3814 5.17321 -39.1738 3.89039C-43.2733 2.00709 -47.4886 0 -52 0V0C-64.1503 0 -74 9.84974 -74 22C-74 34.1503 -64.1503 44 -52 44V44C-47.4863 44 -43.2686 41.9921 -39.1663 40.1094C-36.3759 38.8287 -33.2713 38.1147 -30 38.1147C-26.7287 38.1147 -23.6241 38.8287 -20.8337 40.1094C-16.7314 41.9921 -12.5137 44 -8 44V44C4.15026 44 14 34.1503 14 22C14 9.84974 4.15026 0 -8 0V0Z"/>
</mask>
<path d="M-20.8337 40.1094L-22.085 42.836L-20.8337 40.1094ZM-30 8.88849C-26.2848 8.88849 -22.7511 8.07613 -19.5738 6.61649L-22.0786 1.1643C-24.4861 2.2703 -27.1667 2.88849 -30 2.88849V8.88849ZM-40.4262 6.61649C-37.2489 8.07613 -33.7152 8.88849 -30 8.88849V2.88849C-32.8333 2.88849 -35.5139 2.2703 -37.9214 1.1643L-40.4262 6.61649ZM-71 22C-71 11.5066 -62.4934 3 -52 3V-3C-65.8071 -3 -77 8.19288 -77 22H-71ZM-52 41C-62.4934 41 -71 32.4934 -71 22H-77C-77 35.8071 -65.8071 47 -52 47V41ZM-30 35.1147C-33.7119 35.1147 -37.2426 35.9257 -40.4177 37.3828L-37.915 42.836C-35.5092 41.7318 -32.8307 41.1147 -30 41.1147V35.1147ZM-19.5824 37.3828C-22.7574 35.9257 -26.2881 35.1147 -30 35.1147V41.1147C-27.1693 41.1147 -24.4908 41.7318 -22.085 42.836L-19.5824 37.3828ZM11 22C11 32.4934 2.49341 41 -8 41V47C5.80711 47 17 35.8071 17 22H11ZM-8 3C2.49341 3 11 11.5066 11 22H17C17 8.19288 5.80711 -3 -8 -3V3ZM-22.085 42.836C-18.1461 44.6437 -13.2972 47 -8 47V41C-11.7302 41 -15.3166 39.3406 -19.5824 37.3828L-22.085 42.836ZM-37.9214 1.1643C-41.8583 -0.644304 -46.7047 -3 -52 -3V3C-48.2725 3 -44.6882 4.65849 -40.4262 6.61649L-37.9214 1.1643ZM-52 47C-46.7028 47 -41.8539 44.6437 -37.915 42.836L-40.4177 37.3828C-44.6834 39.3406 -48.2698 41 -52 41V47ZM-19.5738 6.61649C-15.3118 4.65849 -11.7275 3 -8 3V-3C-13.2953 -3 -18.1417 -0.644302 -22.0786 1.1643L-19.5738 6.61649Z" fill="white" mask="url(#path-5-inside-2_427_12675)"/>
</g>
<defs>
<clipPath id="clip0_427_12675">
<rect width="44" height="44" rx="22" fill="white"/>
</clipPath>
</defs>
</svg>
